<svg width="197" height="40" viewBox="0 0 197 40" fill="none" xmlns="http://www.w3.org/2000/svg">
<g clip-path="url(#clip0_1_2)">
<path d="M26.714 37.054V2.839H2.82001V15.039H0V0H29.572V39.818H0.0559998V37.054H26.714Z" fill="white"/>
<path d="M8.78 25.831C11.694 27.542 10.942 31.903 8.63 32.881C8.26059 33.0427 7.87649 33.1687 7.483 33.257C7.05501 33.3414 6.61914 33.3793 6.183 33.37C4.153 33.389 2.12201 33.37 0.0360107 33.37V18.819C2.55501 18.819 5.05601 18.669 7.51801 18.875C8.21697 18.9484 8.8716 19.2525 9.3786 19.7392C9.8856 20.2259 10.2161 20.8676 10.318 21.563C10.5696 22.3443 10.5552 23.187 10.2769 23.9593C9.9986 24.7315 9.47218 25.3898 8.78 25.831ZM2.91501 30.869C4.08101 30.869 5.19 30.944 6.299 30.85C6.70633 30.7996 7.0833 30.6086 7.36482 30.3099C7.64634 30.0112 7.81476 29.6236 7.841 29.214C7.87868 29.0041 7.87447 28.7888 7.82864 28.5805C7.78282 28.3722 7.69626 28.175 7.57396 28.0003C7.45166 27.8256 7.29603 27.6768 7.11601 27.5624C6.93599 27.4481 6.73514 27.3704 6.52501 27.334C5.32328 27.2553 4.11813 27.2426 2.91501 27.296V30.869ZM2.877 24.609C4.061 24.609 5.09501 24.684 6.11101 24.59C6.52053 24.5664 6.90575 24.388 7.18857 24.0908C7.47138 23.7937 7.63062 23.4002 7.634 22.99C7.65176 22.786 7.62873 22.5805 7.56625 22.3854C7.50377 22.1904 7.40309 22.0098 7.27008 21.854C7.13707 21.6983 6.97439 21.5706 6.79153 21.4784C6.60867 21.3862 6.40929 21.3314 6.205 21.317C5.09671 21.2542 3.98594 21.2478 2.877 21.298V24.609Z" fill="white"/>
<path d="M41.825 12.186C42.401 12.1867 42.9707 12.3055 43.499 12.535C43.9706 12.7558 44.3964 13.0635 44.754 13.442C45.0971 13.8398 45.3791 14.2863 45.591 14.767C45.784 15.2309 45.879 15.7296 45.87 16.232C45.8804 16.6598 45.8095 17.0857 45.661 17.487C45.5407 17.8103 45.3765 18.1155 45.173 18.394C44.981 18.6634 44.7712 18.9196 44.545 19.161C44.7369 19.2677 44.9231 19.3842 45.103 19.51C45.4083 19.7107 45.6694 19.9717 45.87 20.277C46.1587 20.6369 46.3945 21.0363 46.57 21.463C46.7754 21.9964 46.8703 22.5659 46.849 23.137C46.8704 23.796 46.7437 24.4513 46.4782 25.0548C46.2128 25.6583 45.8152 26.1946 45.315 26.624C44.8927 27.0053 44.393 27.2908 43.85 27.461C43.3376 27.6486 42.7957 27.7431 42.25 27.74H37.501V12.116H41.825V12.186ZM39.733 14.278V18.323H41.965C42.1564 18.3015 42.3441 18.2544 42.523 18.183C42.7619 18.0941 42.9768 17.9511 43.151 17.765C43.335 17.5732 43.4986 17.3627 43.639 17.137C43.7895 16.8592 43.8617 16.5457 43.848 16.23C43.8356 15.9693 43.7889 15.7114 43.709 15.463C43.6201 15.2242 43.477 15.0092 43.291 14.835C43.1431 14.6202 42.9182 14.4706 42.663 14.417C42.3921 14.3309 42.1102 14.2838 41.826 14.277L39.733 14.278ZM42.314 25.647C42.6728 25.645 43.0279 25.5741 43.36 25.438C43.6428 25.2925 43.9015 25.1042 44.127 24.88C44.33 24.6265 44.4944 24.3445 44.615 24.043C44.7501 23.7596 44.8215 23.45 44.824 23.136C44.822 22.7772 44.7511 22.422 44.615 22.09C44.4874 21.7762 44.2976 21.4915 44.057 21.253C43.8375 20.9903 43.5469 20.7966 43.22 20.695C42.9366 20.5598 42.627 20.4885 42.313 20.486H39.801V25.716H42.312L42.314 25.647Z" fill="white"/>
<path d="M59.471 27.878C57.909 27.9006 56.3762 27.4541 55.0707 26.5963C53.7652 25.7384 52.7471 24.5087 52.148 23.066C51.7492 22.0934 51.5591 21.0478 51.59 19.997C51.5935 18.9263 51.7823 17.8643 52.148 16.858C52.5141 15.9078 53.0857 15.0504 53.822 14.347C55.3281 12.8655 57.3584 12.0388 59.471 12.047C60.526 12.0464 61.5701 12.2601 62.54 12.675C63.9753 13.2845 65.1981 14.3051 66.0544 15.6082C66.9107 16.9113 67.3622 18.4387 67.352 19.998C67.3525 21.053 67.1389 22.0971 66.724 23.067C66.3372 24.0063 65.7683 24.8597 65.05 25.578C64.3317 26.2963 63.4783 26.8652 62.539 27.252C61.5692 27.6661 60.5255 27.8791 59.471 27.878ZM59.471 14.278C58.7067 14.2685 57.9481 14.4106 57.239 14.696C56.5589 14.9618 55.9413 15.3656 55.425 15.8819C54.9086 16.3983 54.5048 17.0159 54.239 17.696C53.9537 18.4288 53.8118 19.2096 53.821 19.996C53.8181 20.737 53.96 21.4715 54.239 22.158C54.5092 22.8355 54.9125 23.452 55.425 23.971C55.9218 24.5266 56.5431 24.9567 57.238 25.226C57.9447 25.5277 58.7019 25.6932 59.47 25.714C60.9711 25.6694 62.3964 25.0442 63.446 23.97C63.9423 23.4235 64.3642 22.8139 64.701 22.157C65.0023 21.4748 65.1681 20.7405 65.189 19.995C65.2094 19.2006 65.0423 18.4126 64.701 17.695C64.4065 17.0137 63.9799 16.3976 63.446 15.882C62.9151 15.3845 62.3016 14.9832 61.633 14.696C60.9465 14.4171 60.212 14.2751 59.471 14.278Z" fill="white"/>
<path d="M85.835 27.809H83.467L82.142 24.809H75.167L73.842 27.809H71.467L71.885 26.833L72.513 25.368L73.141 23.903C74.048 21.811 74.954 19.649 75.931 17.486C76.907 15.254 77.814 13.092 78.721 11L85.835 27.809ZM81.235 22.578C81.026 22.09 80.886 21.671 80.677 21.183C80.468 20.765 80.328 20.346 80.119 19.858C79.84 19.23 79.631 18.742 79.419 18.184C79.21 17.696 78.931 17.068 78.719 16.44L78.231 17.556C78.092 17.835 78.022 18.114 77.882 18.393C77.7789 18.6545 77.6624 18.9105 77.533 19.16C77.254 19.718 77.045 20.276 76.766 20.834C76.557 21.392 76.278 21.95 76.066 22.508H81.227L81.235 22.578Z" fill="white"/>
<path d="M99.226 27.809L94.971 21.183H92.809V27.809H90.787V12.186H95.042C95.6164 12.2012 96.1834 12.3194 96.716 12.535C97.2647 12.7268 97.7647 13.0364 98.181 13.442C98.6054 13.8451 98.9589 14.3167 99.227 14.837C99.5122 15.4232 99.6554 16.0682 99.645 16.72C99.6519 17.5299 99.4345 18.326 99.017 19.02C98.616 19.7215 98.0064 20.2808 97.273 20.62L101.946 27.734H99.226V27.809ZM95.111 19.021C95.448 19.026 95.7817 18.9546 96.087 18.812C96.3494 18.6658 96.5859 18.4772 96.787 18.254C96.9922 18.0402 97.1365 17.7754 97.205 17.487C97.279 17.2371 97.3256 16.9799 97.344 16.72C97.3596 16.329 97.2628 15.9417 97.065 15.604C96.9194 15.3212 96.7312 15.0625 96.507 14.837C96.2932 14.6318 96.0284 14.4875 95.74 14.419C95.5353 14.3537 95.3251 14.3072 95.112 14.28H92.812V18.953H95.112L95.111 19.021Z" fill="white"/>
<path d="M110.526 12.186C111.086 12.2036 111.645 12.2504 112.2 12.326C112.819 12.391 113.428 12.5313 114.013 12.744C114.643 12.9649 115.25 13.2451 115.826 13.581C116.417 13.9503 116.936 14.4228 117.36 14.976C117.868 15.6177 118.247 16.352 118.476 17.138C118.776 18.1089 118.917 19.122 118.894 20.138C118.931 21.1829 118.765 22.2251 118.406 23.207C118.107 24.0058 117.657 24.7398 117.081 25.369C116.585 25.9125 115.994 26.3614 115.337 26.694C114.711 27.0096 114.057 27.2663 113.384 27.461C112.791 27.6167 112.183 27.7102 111.571 27.74C111.131 27.793 110.689 27.8164 110.246 27.81H105.992V12.186H110.526ZM110.317 25.717C111.195 25.7316 112.069 25.5901 112.898 25.299C113.621 25.0705 114.287 24.69 114.851 24.183C115.389 23.6983 115.817 23.1036 116.106 22.439C116.521 21.3298 116.63 20.1293 116.421 18.9634C116.213 17.7976 115.694 16.7094 114.92 15.813C114.319 15.2682 113.613 14.8513 112.846 14.5876C112.078 14.3239 111.265 14.2189 110.456 14.279H108.156V25.717H110.317Z" fill="white"/>
<path d="M144.007 12.186L137.107 28.576L133.899 21.183C133.76 21.532 133.55 21.883 133.411 22.229C133.272 22.575 133.062 22.929 132.923 23.275L131.668 26.135L130.607 28.506L123.707 12.116H126.078L130.678 22.716C130.748 22.507 130.887 22.298 130.957 22.088C131.027 21.878 131.166 21.6 131.236 21.388L131.585 20.481L131.725 20.272L132.632 18.249L132.214 17.203L131.796 16.157C131.673 15.9367 131.579 15.7014 131.517 15.457C131.447 15.178 131.308 14.969 131.238 14.69L130.192 12.179H132.633L133.958 15.387L135.283 12.179H137.654L135.143 18.317C135.358 18.7219 135.544 19.1413 135.701 19.572C135.91 19.991 136.05 20.409 136.259 20.827C136.398 21.176 136.538 21.527 136.677 21.803C136.816 22.079 136.956 22.431 137.165 22.779C137.584 21.872 137.932 21.035 138.281 20.129C138.63 19.292 139.048 18.385 139.397 17.479L141.697 12.179L144.007 12.186Z" fill="white"/>
<path d="M162.695 27.809H160.327L159.002 24.809H152.027L150.702 27.809H148.327L148.745 26.833L149.373 25.368L150.001 23.903C150.908 21.811 151.814 19.649 152.791 17.486C153.767 15.254 154.674 13.092 155.581 11L162.695 27.809ZM158.095 22.578C157.886 22.09 157.746 21.671 157.537 21.183C157.328 20.765 157.188 20.346 156.979 19.858C156.7 19.23 156.491 18.742 156.279 18.184C156.07 17.696 155.791 17.068 155.579 16.44L155.091 17.556C154.951 17.835 154.882 18.114 154.742 18.393C154.639 18.6545 154.522 18.9105 154.393 19.16C154.114 19.718 153.905 20.276 153.626 20.834C153.417 21.392 153.138 21.95 152.926 22.508H158.087L158.095 22.578Z" fill="white"/>
<path d="M177.272 25.647V27.809H167.717V12.186H169.879V25.647H177.272Z" fill="white"/>
<path d="M183.061 12.186H185.223V27.809H183.061V12.186ZM196.104 27.809H193.175L184.735 19.786L191.919 12.186H194.848L187.664 19.579L196.104 27.809Z" fill="white"/>
</g>
<defs>
<clipPath id="clip0_1_2">
<rect width="196.103" height="39.818" fill="white"/>
</clipPath>
</defs>
</svg>
