<svg xmlns="http://www.w3.org/2000/svg" width="196.103" height="39.818" viewBox="0 0 196.103 39.818">
  <g id="Logo" transform="translate(0)">
    <g id="Group_2" data-name="Group 2">
      <path id="Path_17" data-name="Path 17" d="M204.114,150.454V116.239H180.22v12.2H177.4V113.4h29.572v39.818H177.456v-2.764Z" transform="translate(-177.4 -113.4)" fill="#2e3f50"/>
      <path id="Path_18" data-name="Path 18" d="M186.342,220.284c2.914,1.711,2.162,6.072-.15,7.05a6.3,6.3,0,0,1-1.147.376,6.053,6.053,0,0,1-1.3.113c-2.03.019-4.061,0-6.147,0V213.272c2.519,0,5.02-.15,7.482.056a3.164,3.164,0,0,1,2.8,2.688A3.712,3.712,0,0,1,186.342,220.284Zm-5.865,5.038c1.166,0,2.275.075,3.384-.019a1.762,1.762,0,0,0,1.542-1.636,1.618,1.618,0,0,0-1.316-1.88,32.918,32.918,0,0,0-3.61-.038Zm-.038-6.26c1.184,0,2.218.075,3.234-.019a1.616,1.616,0,0,0,1.523-1.6,1.543,1.543,0,0,0-1.429-1.673,32.686,32.686,0,0,0-3.328-.019Z" transform="translate(-177.562 -194.453)" fill="#2e3f50"/>
    </g>
    <g id="Group_1" data-name="Group 1" transform="translate(37.501 11)">
      <path id="Path_19" data-name="Path 19" d="M153.324,353.37a4.215,4.215,0,0,1,1.674.349,4.142,4.142,0,0,1,1.255.907,5.306,5.306,0,0,1,.837,1.325,3.643,3.643,0,0,1,.279,1.465,3.379,3.379,0,0,1-.209,1.255,3.758,3.758,0,0,1-.488.907,7.422,7.422,0,0,1-.628.767,6.42,6.42,0,0,1,.558.349,2.677,2.677,0,0,1,.767.767,4.835,4.835,0,0,1,.7,1.186,4.22,4.22,0,0,1,.279,1.674,4.407,4.407,0,0,1-1.534,3.487,3.947,3.947,0,0,1-1.465.837,4.578,4.578,0,0,1-1.6.279H149V353.3h4.324Zm-2.092,2.092v4.045h2.232a2.156,2.156,0,0,0,.558-.14,1.647,1.647,0,0,0,.628-.418,3.834,3.834,0,0,0,.488-.628,1.745,1.745,0,0,0,.209-.907,2.966,2.966,0,0,0-.139-.767,1.647,1.647,0,0,0-.418-.628,1.016,1.016,0,0,0-.628-.418,3,3,0,0,0-.837-.14Zm2.581,11.369a2.8,2.8,0,0,0,1.046-.209,3.1,3.1,0,0,0,.767-.558,3.3,3.3,0,0,0,.488-.837,2.148,2.148,0,0,0,.209-.907,2.8,2.8,0,0,0-.209-1.046,2.509,2.509,0,0,0-.558-.837,1.778,1.778,0,0,0-.837-.558,2.147,2.147,0,0,0-.907-.209H151.3V366.9h2.511Z" transform="translate(-149 -352.184)" fill="#2e3f50"/>
      <path id="Path_20" data-name="Path 20" d="M177.081,369.032a7.807,7.807,0,0,1-7.323-4.812,7.507,7.507,0,0,1-.558-3.069,9.277,9.277,0,0,1,.558-3.139,6.906,6.906,0,0,1,1.674-2.511,8.011,8.011,0,0,1,5.649-2.3,7.793,7.793,0,0,1,3.069.628,7.9,7.9,0,0,1,4.812,7.323,7.794,7.794,0,0,1-.628,3.069,7.694,7.694,0,0,1-4.185,4.185A7.793,7.793,0,0,1,177.081,369.032Zm0-13.6a5.784,5.784,0,0,0-2.232.418,5.288,5.288,0,0,0-3,3,6.143,6.143,0,0,0-.418,2.3,5.683,5.683,0,0,0,.418,2.162,5.456,5.456,0,0,0,1.186,1.813,4.719,4.719,0,0,0,1.813,1.255,6.106,6.106,0,0,0,2.232.488,5.8,5.8,0,0,0,3.976-1.744,8.392,8.392,0,0,0,1.255-1.813,5.75,5.75,0,0,0,.488-2.162,5.053,5.053,0,0,0-.488-2.3,5.621,5.621,0,0,0-1.255-1.813,6.271,6.271,0,0,0-1.813-1.186A5.685,5.685,0,0,0,177.081,355.432Z" transform="translate(-155.111 -352.154)" fill="#2e3f50"/>
      <path id="Path_21" data-name="Path 21" d="M212.068,368.509H209.7l-1.325-3H201.4l-1.325,3H197.7l.418-.976.628-1.465.628-1.465c.907-2.092,1.813-4.254,2.79-6.417.976-2.232,1.883-4.394,2.79-6.486Zm-4.6-5.231c-.209-.488-.349-.907-.558-1.395-.209-.418-.349-.837-.558-1.325-.279-.628-.488-1.116-.7-1.674-.209-.488-.488-1.116-.7-1.744l-.488,1.116c-.139.279-.209.558-.349.837a8.183,8.183,0,0,1-.349.767c-.279.558-.488,1.116-.767,1.674-.209.558-.488,1.116-.7,1.674h5.161Z" transform="translate(-163.734 -351.7)" fill="#2e3f50"/>
      <path id="Path_22" data-name="Path 22" d="M233.839,369.023l-4.255-6.626h-2.162v6.626H225.4V353.4h4.255a4.8,4.8,0,0,1,1.674.349,3.983,3.983,0,0,1,1.465.907,5.225,5.225,0,0,1,1.046,1.395,4.153,4.153,0,0,1,.418,1.883,4.39,4.39,0,0,1-.628,2.3,3.89,3.89,0,0,1-1.744,1.6l4.673,7.114h-2.72Zm-4.115-8.788a2.228,2.228,0,0,0,.976-.209,2.731,2.731,0,0,0,.7-.558,1.662,1.662,0,0,0,.418-.767,3.6,3.6,0,0,0,.139-.767,2.047,2.047,0,0,0-.279-1.116,3.1,3.1,0,0,0-.558-.767,1.662,1.662,0,0,0-.767-.418,3.539,3.539,0,0,0-.628-.139h-2.3v4.673h2.3Z" transform="translate(-172.114 -352.214)" fill="#2e3f50"/>
      <path id="Path_23" data-name="Path 23" d="M251.734,353.4a16.159,16.159,0,0,1,1.674.14,7.64,7.64,0,0,1,1.813.418,10.515,10.515,0,0,1,1.813.837,5.811,5.811,0,0,1,1.534,1.395,6.331,6.331,0,0,1,1.116,2.162,9.426,9.426,0,0,1,.418,3,8.1,8.1,0,0,1-.488,3.069,6.664,6.664,0,0,1-1.325,2.162,6.089,6.089,0,0,1-1.744,1.325,11.322,11.322,0,0,1-1.953.767,8.826,8.826,0,0,1-1.813.279,9.877,9.877,0,0,1-1.325.07H247.2V353.4Zm-.209,13.531a7.418,7.418,0,0,0,2.581-.418,5.317,5.317,0,0,0,1.953-1.116,5.055,5.055,0,0,0,1.255-1.744,6.6,6.6,0,0,0-1.186-6.626,5.988,5.988,0,0,0-4.464-1.534h-2.3v11.438Z" transform="translate(-178.709 -352.214)" fill="#2e3f50"/>
      <path id="Path_24" data-name="Path 24" d="M292.9,353.37l-6.9,16.39-3.208-7.393c-.139.349-.349.7-.488,1.046s-.349.7-.488,1.046l-1.255,2.86L279.5,369.69l-6.9-16.39h2.371l4.6,10.6c.07-.209.209-.418.279-.628s.209-.488.279-.7l.349-.907.14-.209.907-2.023-.418-1.046-.418-1.046a2.912,2.912,0,0,1-.279-.7c-.07-.279-.209-.488-.279-.767l-1.046-2.511h2.441l1.325,3.208,1.325-3.208h2.371l-2.511,6.138a9.89,9.89,0,0,1,.558,1.255c.209.419.349.837.558,1.255.139.349.279.7.418.976s.279.628.488.976c.419-.907.767-1.744,1.116-2.65.349-.837.767-1.744,1.116-2.65l2.3-5.3Z" transform="translate(-186.394 -352.184)" fill="#2e3f50"/>
      <path id="Path_25" data-name="Path 25" d="M322.268,368.509H319.9l-1.325-3H311.6l-1.325,3H307.9l.418-.976.628-1.465.628-1.465c.907-2.092,1.813-4.254,2.79-6.417.976-2.232,1.883-4.394,2.79-6.486Zm-4.6-5.231c-.209-.488-.349-.907-.558-1.395-.209-.418-.349-.837-.558-1.325-.279-.628-.488-1.116-.7-1.674-.209-.488-.488-1.116-.7-1.744l-.488,1.116c-.14.279-.209.558-.349.837a8.163,8.163,0,0,1-.349.767c-.279.558-.488,1.116-.767,1.674-.209.558-.488,1.116-.7,1.674h5.161Z" transform="translate(-197.074 -351.7)" fill="#2e3f50"/>
      <path id="Path_26" data-name="Path 26" d="M345.255,366.861v2.162H335.7V353.4h2.162v13.461Z" transform="translate(-205.484 -352.214)" fill="#2e3f50"/>
      <path id="Path_27" data-name="Path 27" d="M357.7,353.4h2.162v15.623H357.7Zm13.043,15.623h-2.929L359.374,361l7.184-7.6h2.929l-7.184,7.393Z" transform="translate(-212.14 -352.214)" fill="#2e3f50"/>
    </g>
  </g>
</svg>
